#Comment line ignore any data following # character 
#Hierarchical Translation and Rotation (.htr) file 
[Header]	
#Header keywords are followed by a single value 
FileType HTR		#Single word string
DataType HTRS		#Translation followed by rotation and scale data
FileVersion 1		#integer
NumSegments 84		#integer
NumFrames 2		#integer
DataFrameRate 30		#integer, data frame rate in this file
EulerRotationOrder ZYX
CalibrationUnits mm
RotationUnits Degrees
GlobalAxisofGravity Y
BoneLengthAxis Y
ScaleFactor 1.00
[SegmentNames&Hierarchy]
#CHILD	PARENT
MASTER GLOBAL
root MASTER
chest root
L_mid_tent01 root
R_mid_tent01 root
spine01 root
Bip01_Neck chest
L_humerus chest
R_humerus chest
weapon_bone chest
Bip01_Head Bip01_Neck
eye_left_bone Bip01_Head
eye_right_bone Bip01_Head
L_forearm L_humerus
L_front_hand L_forearm
L_weapon_bone L_forearm
L_front_hand01_01 L_front_hand
L_front_hand02_01 L_front_hand
L_front_hand03_01 L_front_hand
L_front_hand01_02 L_front_hand01_01
L_front_hand02_02 L_front_hand02_01
L_front_hand03_02 L_front_hand03_01
R_forearm R_humerus
R_front_hand R_forearm
R_weapon_bone R_forearm
R_front_hand01_01 R_front_hand
R_front_hand02_01 R_front_hand
R_front_hand03_01 R_front_hand
R_front_hand01_02 R_front_hand01_01
R_front_hand02_02 R_front_hand02_01
R_front_hand03_02 R_front_hand03_01
null_rope01_connect L_mid_tent01
Rope1_Seg01 null_rope01_connect
Rope1_Seg02 Rope1_Seg01
Rope1_Seg03 Rope1_Seg02
Rope1_Seg04 Rope1_Seg03
Rope1_Seg05 Rope1_Seg04
Rope1_Seg06 Rope1_Seg05
Rope1_Seg07 Rope1_Seg06
Rope1_Seg09 Rope1_Seg07
L_mid_hand01 Rope1_Seg09
L_mid_hand02 Rope1_Seg09
L_mid_hand03 Rope1_Seg09
null_rope02_connect R_mid_tent01
Rope2_Seg01 null_rope02_connect
Rope2_Seg02 Rope2_Seg01
Rope2_Seg03 Rope2_Seg02
Rope2_Seg04 Rope2_Seg03
Rope2_Seg05 Rope2_Seg04
Rope2_Seg06 Rope2_Seg05
Rope2_Seg07 Rope2_Seg06
Rope2_Seg09 Rope2_Seg07
R_mid_hand01 Rope2_Seg09
R_mid_hand02 Rope2_Seg09
R_mid_hand03 Rope2_Seg09
spine02 spine01
spine03 spine02
pelvis spine03
null_rope03_connect pelvis
null_rope04_connect pelvis
Rope3_Seg01 null_rope03_connect
Rope3_Seg02 Rope3_Seg01
Rope3_Seg03 Rope3_Seg02
Rope3_Seg04 Rope3_Seg03
Rope3_Seg05 Rope3_Seg04
Rope3_Seg06 Rope3_Seg05
Rope3_Seg07 Rope3_Seg06
Rope3_Seg08 Rope3_Seg07
Rope3_Seg09 Rope3_Seg08
R_rear_hand01 Rope3_Seg09
R_rear_hand02 Rope3_Seg09
R_rear_hand03 Rope3_Seg09
Rope4_Seg01 null_rope04_connect
Rope4_Seg02 Rope4_Seg01
Rope4_Seg03 Rope4_Seg02
Rope4_Seg04 Rope4_Seg03
Rope4_Seg05 Rope4_Seg04
Rope4_Seg06 Rope4_Seg05
Rope4_Seg07 Rope4_Seg06
Rope4_Seg08 Rope4_Seg07
Rope4_Seg09 Rope4_Seg08
L_rear_hand01 Rope4_Seg09
L_rear_hand02 Rope4_Seg09
L_rear_hand03 Rope4_Seg09
[BasePosition]
#SegmentName Tx, Ty, Tz, Rx, Ry, Rz, BoneLength
MASTER 0.000000 0.000000 0.000000 -90.000000 0.000000 0.000000 10.000000 
root 0.000000 0.000000 0.000000 0.000000 0.000000 0.000000 10.000000 
chest 0.000000 0.000000 0.000000 0.000000 0.000000 0.000000 10.000000 
L_mid_tent01 0.000000 0.000000 0.000000 0.000000 0.000000 0.000000 10.000000 
R_mid_tent01 0.000000 0.000000 0.000000 0.000000 0.000000 0.000000 10.000000 
spine01 0.000000 0.000000 0.000000 0.000000 0.000000 0.000000 10.000000 
Bip01_Neck 0.000000 0.000000 0.000000 0.000000 0.000000 0.000000 10.000000 
L_humerus 0.000000 0.000000 0.000000 0.000000 0.000000 0.000000 10.000000 
R_humerus 0.000000 0.000000 0.000000 0.000000 0.000000 0.000000 10.000000 
weapon_bone 0.000000 0.000000 0.000000 0.000000 0.000000 0.000000 10.000000 
Bip01_Head 0.000000 0.000000 0.000000 0.000000 0.000000 0.000000 10.000000 
eye_left_bone 0.000000 0.000000 0.000000 0.000000 0.000000 0.000000 10.000000 
eye_right_bone 0.000000 0.000000 0.000000 0.000000 0.000000 0.000000 10.000000 
L_forearm 0.000000 0.000000 0.000000 0.000000 0.000000 0.000000 10.000000 
L_front_hand 0.000000 0.000000 0.000000 0.000000 0.000000 0.000000 10.000000 
L_weapon_bone 0.000000 0.000000 0.000000 0.000000 0.000000 0.000000 10.000000 
L_front_hand01_01 0.000000 0.000000 0.000000 0.000000 0.000000 0.000000 10.000000 
L_front_hand02_01 0.000000 0.000000 0.000000 0.000000 0.000000 0.000000 10.000000 
L_front_hand03_01 0.000000 0.000000 0.000000 0.000000 0.000000 0.000000 10.000000 
L_front_hand01_02 0.000000 0.000000 0.000000 0.000000 0.000000 0.000000 10.000000 
L_front_hand02_02 0.000000 0.000000 0.000000 0.000000 0.000000 0.000000 10.000000 
L_front_hand03_02 0.000000 0.000000 0.000000 0.000000 0.000000 0.000000 10.000000 
R_forearm 0.000000 0.000000 0.000000 0.000000 0.000000 0.000000 10.000000 
R_front_hand 0.000000 0.000000 0.000000 0.000000 0.000000 0.000000 10.000000 
R_weapon_bone 0.000000 0.000000 0.000000 0.000000 0.000000 0.000000 10.000000 
R_front_hand01_01 0.000000 0.000000 0.000000 0.000000 0.000000 0.000000 10.000000 
R_front_hand02_01 0.000000 0.000000 0.000000 0.000000 0.000000 0.000000 10.000000 
R_front_hand03_01 0.000000 0.000000 0.000000 0.000000 0.000000 0.000000 10.000000 
R_front_hand01_02 0.000000 0.000000 0.000000 0.000000 0.000000 0.000000 10.000000 
R_front_hand02_02 0.000000 0.000000 0.000000 0.000000 0.000000 0.000000 10.000000 
R_front_hand03_02 0.000000 0.000000 0.000000 0.000000 0.000000 0.000000 10.000000 
null_rope01_connect 0.000000 0.000000 0.000000 0.000000 0.000000 0.000000 10.000000 
Rope1_Seg01 0.000000 0.000000 0.000000 0.000000 0.000000 0.000000 10.000000 
Rope1_Seg02 0.000000 0.000000 0.000000 0.000000 0.000000 0.000000 10.000000 
Rope1_Seg03 0.000000 0.000000 0.000000 0.000000 0.000000 0.000000 10.000000 
Rope1_Seg04 0.000000 0.000000 0.000000 0.000000 0.000000 0.000000 10.000000 
Rope1_Seg05 0.000000 0.000000 0.000000 0.000000 0.000000 0.000000 10.000000 
Rope1_Seg06 0.000000 0.000000 0.000000 0.000000 0.000000 0.000000 10.000000 
Rope1_Seg07 0.000000 0.000000 0.000000 0.000000 0.000000 0.000000 10.000000 
Rope1_Seg09 0.000000 0.000000 0.000000 0.000000 0.000000 0.000000 10.000000 
L_mid_hand01 0.000000 0.000000 0.000000 0.000000 0.000000 0.000000 10.000000 
L_mid_hand02 0.000000 0.000000 0.000000 0.000000 0.000000 0.000000 10.000000 
L_mid_hand03 0.000000 0.000000 0.000000 0.000000 0.000000 0.000000 10.000000 
null_rope02_connect 0.000000 0.000000 0.000000 0.000000 0.000000 0.000000 10.000000 
Rope2_Seg01 0.000000 0.000000 0.000000 0.000000 0.000000 0.000000 10.000000 
Rope2_Seg02 0.000000 0.000000 0.000000 0.000000 0.000000 0.000000 10.000000 
Rope2_Seg03 0.000000 0.000000 0.000000 0.000000 0.000000 0.000000 10.000000 
Rope2_Seg04 0.000000 0.000000 0.000000 0.000000 0.000000 0.000000 10.000000 
Rope2_Seg05 0.000000 0.000000 0.000000 0.000000 0.000000 0.000000 10.000000 
Rope2_Seg06 0.000000 0.000000 0.000000 0.000000 0.000000 0.000000 10.000000 
Rope2_Seg07 0.000000 0.000000 0.000000 0.000000 0.000000 0.000000 10.000000 
Rope2_Seg09 0.000000 0.000000 0.000000 0.000000 0.000000 0.000000 10.000000 
R_mid_hand01 0.000000 0.000000 0.000000 0.000000 0.000000 0.000000 10.000000 
R_mid_hand02 0.000000 0.000000 0.000000 0.000000 0.000000 0.000000 10.000000 
R_mid_hand03 0.000000 0.000000 0.000000 0.000000 0.000000 0.000000 10.000000 
spine02 0.000000 0.000000 0.000000 0.000000 0.000000 0.000000 10.000000 
spine03 0.000000 0.000000 0.000000 0.000000 0.000000 0.000000 10.000000 
pelvis 0.000000 0.000000 0.000000 0.000000 0.000000 0.000000 10.000000 
null_rope03_connect 0.000000 0.000000 0.000000 0.000000 0.000000 0.000000 10.000000 
null_rope04_connect 0.000000 0.000000 0.000000 0.000000 0.000000 0.000000 10.000000 
Rope3_Seg01 0.000000 0.000000 0.000000 0.000000 0.000000 0.000000 10.000000 
Rope3_Seg02 0.000000 0.000000 0.000000 0.000000 0.000000 0.000000 10.000000 
Rope3_Seg03 0.000000 0.000000 0.000000 0.000000 0.000000 0.000000 10.000000 
Rope3_Seg04 0.000000 0.000000 0.000000 0.000000 0.000000 0.000000 10.000000 
Rope3_Seg05 0.000000 0.000000 0.000000 0.000000 0.000000 0.000000 10.000000 
Rope3_Seg06 0.000000 0.000000 0.000000 0.000000 0.000000 0.000000 10.000000 
Rope3_Seg07 0.000000 0.000000 0.000000 0.000000 0.000000 0.000000 10.000000 
Rope3_Seg08 0.000000 0.000000 0.000000 0.000000 0.000000 0.000000 10.000000 
Rope3_Seg09 0.000000 0.000000 0.000000 0.000000 0.000000 0.000000 10.000000 
R_rear_hand01 0.000000 0.000000 0.000000 0.000000 0.000000 0.000000 10.000000 
R_rear_hand02 0.000000 0.000000 0.000000 0.000000 0.000000 0.000000 10.000000 
R_rear_hand03 0.000000 0.000000 0.000000 0.000000 0.000000 0.000000 10.000000 
Rope4_Seg01 0.000000 0.000000 0.000000 0.000000 0.000000 0.000000 10.000000 
Rope4_Seg02 0.000000 0.000000 0.000000 0.000000 0.000000 0.000000 10.000000 
Rope4_Seg03 0.000000 0.000000 0.000000 0.000000 0.000000 0.000000 10.000000 
Rope4_Seg04 0.000000 0.000000 0.000000 0.000000 0.000000 0.000000 10.000000 
Rope4_Seg05 0.000000 0.000000 0.000000 0.000000 0.000000 0.000000 10.000000 
Rope4_Seg06 0.000000 0.000000 0.000000 0.000000 0.000000 0.000000 10.000000 
Rope4_Seg07 0.000000 0.000000 0.000000 0.000000 0.000000 0.000000 10.000000 
Rope4_Seg08 0.000000 0.000000 0.000000 0.000000 0.000000 0.000000 10.000000 
Rope4_Seg09 0.000000 0.000000 0.000000 0.000000 0.000000 0.000000 10.000000 
L_rear_hand01 0.000000 0.000000 0.000000 0.000000 0.000000 0.000000 10.000000 
L_rear_hand02 0.000000 0.000000 0.000000 0.000000 0.000000 0.000000 10.000000 
L_rear_hand03 0.000000 0.000000 0.000000 0.000000 0.000000 0.000000 10.000000 
#Beginning of Data. Separated by tabs
#Fr	Tx	Ty	Tz	Rx	Ry	Rz	SF
[MASTER]
31 0.000000 0.000000 0.000000 0.001660 0.001660 0.001660 0.000000
32 0.000000 0.000000 0.000000 0.001660 0.001660 0.001660 0.000000
[root]
31 -16.502329 52.763428 1544.160767 -89.280296 -9.144385 -104.368813 1545.150024
32 -16.502325 42.372765 1521.214478 -90.281609 -10.139585 -101.927124 1521.894043
[chest]
31 -84.512650 -34.090519 0.000000 -2.154496 -0.007640 168.087982 91.129311
32 -84.512650 -34.090519 0.000000 -2.158188 -0.007323 168.125275 91.129311
[L_mid_tent01]
31 27.299112 22.179132 -249.918701 10.131203 47.626526 74.032288 252.381683
32 27.299112 22.179127 -249.918701 0.389195 43.909203 59.735577 252.381683
[R_mid_tent01]
31 23.228794 24.509907 226.238495 -179.645401 -11.669133 36.102493 228.744751
32 23.228794 24.509907 226.238495 -177.289688 -12.939053 34.140194 228.744751
[spine01]
31 -0.361383 -0.195265 0.000000 -0.000001 -0.000007 22.052340 0.410763
32 -0.361383 -0.195265 0.000000 -0.000001 -0.000007 22.052340 0.410763
[Bip01_Neck]
31 165.484543 71.581718 0.000119 175.896118 1.177290 24.871183 180.302734
32 165.484543 71.581718 0.000119 175.896118 1.177290 24.871183 180.302734
[L_humerus]
31 -13.983130 -135.272980 -120.471481 -153.308350 52.331696 -57.670189 181.680161
32 -13.983130 -135.272980 -120.471481 -163.053528 54.326656 -68.593361 181.680161
[R_humerus]
31 -13.983309 -135.273102 125.287651 137.550812 -84.022041 -40.860947 184.909012
32 -13.983309 -135.273102 125.287651 96.976921 -85.110397 -0.508955 184.909012
[weapon_bone]
31 235.964890 -300.705902 0.000000 0.000000 -89.951546 -128.212341 382.234833
32 235.964890 -300.705902 0.000000 0.000000 -89.951546 -128.212341 382.234833
[Bip01_Head]
31 198.670776 156.893585 5.719391 2.484024 3.474073 -56.736488 253.216064
32 201.277527 153.658401 5.275777 2.571202 3.849893 -58.456387 253.281219
[eye_left_bone]
31 32.071110 156.936386 -70.837685 -127.532143 -88.569061 28.100576 175.144409
32 31.772285 156.678497 -70.583794 -128.076401 -88.633415 28.646198 174.756119
[eye_right_bone]
31 36.451565 158.253555 58.130737 52.432068 -88.570427 28.134052 172.487930
32 35.811577 158.000092 58.401894 51.972069 -88.635994 28.598591 172.212891
[L_forearm]
31 322.776093 0.000000 -0.000119 0.000443 0.002305 -68.239830 322.776093
32 322.776093 0.000000 -0.000119 0.000300 0.002332 -75.335869 322.776093
[L_front_hand]
31 241.149185 -0.042021 -3.300071 149.701920 -3.285893 -17.626032 241.171753
32 241.149185 -0.042021 -3.300071 154.543243 -3.440220 -19.257687 241.171753
[L_weapon_bone]
31 156.183838 0.000000 0.000000 0.000014 0.000007 0.000001 156.183838
32 156.183838 0.000000 0.000000 0.000014 0.000007 0.000001 156.183838
[L_front_hand01_01]
31 86.095154 20.947098 -0.655860 -0.366594 -0.477154 75.385574 88.609184
32 86.095154 20.947098 -0.655860 -0.366594 -0.477154 75.385574 88.609184
[L_front_hand02_01]
31 86.935165 -11.437475 24.513514 154.399796 -59.883835 -61.369587 91.046425
32 86.935165 -11.437475 24.513514 154.399796 -59.883835 -61.369587 91.046425
[L_front_hand03_01]
31 86.637497 -14.123976 -20.424902 -153.913849 58.118122 -62.702866 90.126129
32 86.637497 -14.123976 -20.424902 -153.913849 58.118122 -62.702866 90.126129
[L_front_hand01_02]
31 71.020905 -0.000179 0.000030 0.000334 -0.002323 -106.379684 71.020905
32 71.020905 -0.000179 0.000030 0.000334 -0.002323 -106.379684 71.020905
[L_front_hand02_02]
31 71.020927 -0.000119 0.000060 0.000334 -0.002323 -106.379684 71.020927
32 71.020927 -0.000119 0.000060 0.000334 -0.002323 -106.379684 71.020927
[L_front_hand03_02]
31 71.020905 -0.000060 0.000060 0.000334 -0.002323 -106.379684 71.020905
32 71.020905 -0.000060 0.000060 0.000334 -0.002323 -106.379684 71.020905
[R_forearm]
31 322.776428 -0.000060 0.000030 0.209117 -0.020839 -84.968300 322.776428
32 322.776428 -0.000060 0.000030 0.213231 -0.010344 -88.817329 322.776428
[R_front_hand]
31 238.847015 -0.006795 2.210259 -2.635298 -10.645461 -26.312506 238.857239
32 238.847015 -0.006795 2.210259 -2.635298 -10.645461 -26.312506 238.857239
[R_weapon_bone]
31 155.664093 0.002503 -0.000030 0.003487 0.001180 -90.988930 155.664078
32 155.664093 0.002503 -0.000030 0.003487 0.001180 -90.988930 155.664078
[R_front_hand01_01]
31 87.624611 14.231146 22.918642 -154.633499 -59.950619 61.746044 91.683487
32 87.624611 14.231146 22.918642 -154.633499 -59.950619 61.746044 91.683487
[R_front_hand02_01]
31 89.356956 14.367283 -19.491137 154.602661 58.302849 63.744389 92.579636
32 89.356956 14.367283 -19.491137 154.602661 58.302849 63.744389 92.579636
[R_front_hand03_01]
31 87.286232 -22.307278 -0.143439 0.162155 -0.423168 -75.767921 90.091743
32 87.286232 -22.307278 -0.143439 0.162155 -0.423168 -75.767906 90.091743
[R_front_hand01_02]
31 71.020905 0.000060 0.000119 0.002323 -0.000334 106.381714 71.020905
32 71.020905 0.000060 0.000119 0.002323 -0.000334 106.381714 71.020905
[R_front_hand02_02]
31 71.020844 -0.000030 -0.000119 0.002323 -0.000334 106.381714 71.020836
32 71.020844 -0.000030 -0.000119 0.002323 -0.000334 106.381714 71.020836
[R_front_hand03_02]
31 71.020905 0.000000 0.000030 0.002323 -0.000334 106.381714 71.020905
32 71.020905 0.000000 0.000030 0.002323 -0.000334 106.381714 71.020905
[null_rope01_connect]
31 328.732483 0.000000 -0.000238 -132.935364 -32.326775 157.222885 328.732483
32 328.732483 0.000000 -0.000238 -131.595718 -37.438351 168.443008 328.732483
[Rope1_Seg01]
31 0.000000 0.000000 0.000000 115.802742 37.717819 145.064087 0.000000
32 0.000000 0.000000 0.000000 120.805298 35.030155 155.920380 0.000000
[Rope1_Seg02]
31 139.999863 -0.000179 0.000000 0.322635 -11.501203 3.379566 139.999863
32 139.999863 -0.000179 0.000000 2.521111 -12.691311 -0.547611 139.999863
[Rope1_Seg03]
31 139.999924 0.000060 -0.000060 -1.963855 -17.284624 5.350028 139.999924
32 139.999924 0.000060 -0.000060 0.905201 -19.795519 -0.055939 139.999924
[Rope1_Seg04]
31 139.999924 -0.000060 -0.000119 -7.644285 -23.011520 4.195329 139.999924
32 139.999924 -0.000060 -0.000119 -3.601845 -24.044664 -0.177057 139.999924
[Rope1_Seg05]
31 139.999832 0.000119 -0.000060 -9.275249 -16.642828 4.309990 139.999832
32 139.999832 0.000119 -0.000060 -5.760486 -16.574982 0.015681 139.999832
[Rope1_Seg06]
31 139.999954 0.000119 -0.000060 -4.559892 -9.161253 5.885874 139.999954
32 139.999954 0.000119 -0.000060 -6.242859 -12.248742 -0.055204 139.999954
[Rope1_Seg07]
31 139.999985 0.000060 0.000000 -5.115358 -6.415728 3.209311 139.999985
32 139.999985 0.000060 0.000000 -6.434262 -9.140942 -1.466297 139.999985
[Rope1_Seg09]
31 121.602913 0.000119 -0.000089 -174.669281 1.059624 -3.556517 121.602913
32 121.602913 0.000119 -0.000089 154.954590 -0.317005 -3.495087 121.602913
[L_mid_hand01]
31 103.859421 1.038730 8.195221 114.205650 -52.799171 -20.236004 104.187431
32 103.859421 1.038730 8.195221 110.942078 -46.080921 -15.945271 104.187431
[L_mid_hand02]
31 105.572853 -4.139662 -10.864139 -154.664063 37.928822 -51.799149 106.211075
32 105.572853 -4.139662 -10.864139 -149.938370 34.541073 -43.816059 106.211075
[L_mid_hand03]
31 104.641464 17.579376 -3.913581 -11.126181 15.210810 57.052715 106.179977
32 104.641464 17.579376 -3.913581 -12.960147 13.691424 49.711166 106.179977
[null_rope02_connect]
31 328.732849 0.000179 -0.000119 147.797775 82.578888 -96.052155 328.732849
32 328.732849 0.000179 -0.000119 170.738678 82.460609 -75.707199 328.732849
[Rope2_Seg01]
31 0.000095 0.000153 0.000064 59.815922 -4.519846 -59.855583 0.000191
32 0.000095 0.000153 0.000066 55.676914 -3.186921 -56.530556 0.000192
[Rope2_Seg02]
31 139.999741 -0.000060 -0.000119 19.973310 -0.184199 -10.656990 139.999756
32 139.999741 -0.000060 -0.000119 22.600796 -1.119678 -10.555443 139.999756
[Rope2_Seg03]
31 140.000107 0.000030 0.000000 18.758234 0.916269 -9.171131 140.000107
32 140.000107 0.000030 0.000000 20.355581 0.382719 -9.094516 140.000107
[Rope2_Seg04]
31 139.999802 0.000000 -0.000060 12.964882 -2.761877 -5.013633 139.999802
32 139.999802 0.000000 -0.000060 11.869387 -4.074342 -3.970081 139.999802
[Rope2_Seg05]
31 139.999985 -0.000060 0.000119 -4.966866 -13.794050 9.637516 139.999985
32 139.999985 -0.000060 0.000119 -8.016949 -13.930498 12.358864 139.999985
[Rope2_Seg06]
31 139.999893 -0.000030 -0.000119 -4.915745 -18.508415 13.190176 139.999893
32 139.999893 -0.000030 -0.000119 -4.616490 -15.392071 11.926992 139.999893
[Rope2_Seg07]
31 139.999893 0.000060 -0.000060 -0.904646 -11.082374 5.900750 139.999893
32 139.999893 0.000060 -0.000060 -0.857184 -8.518420 4.996782 139.999893
[Rope2_Seg09]
31 121.338966 0.000089 -0.000060 33.793236 -1.359788 -0.847141 121.338966
32 121.338966 0.000089 -0.000060 33.793236 -1.359788 -0.847141 121.338966
[R_mid_hand01]
31 104.680779 11.144459 -10.335981 -44.145947 19.560663 21.759447 105.778534
32 104.680779 11.144459 -10.335981 -44.145947 19.560663 21.759447 105.778534
[R_mid_hand02]
31 104.070427 2.443552 8.231699 74.186180 -24.483591 7.232481 104.424065
32 104.070427 2.443552 8.231699 74.186180 -24.483591 7.232481 104.424065
[R_mid_hand03]
31 106.028137 -11.221827 -5.996406 -166.520828 8.347038 -28.494417 106.788818
32 106.028137 -11.221827 -5.996406 -166.520828 8.347037 -28.494413 106.788818
[spine02]
31 129.756927 0.001550 0.000119 0.518030 -4.026560 -15.167839 129.756927
32 129.756927 0.001550 0.000119 0.488998 -4.030277 -14.760876 129.756927
[spine03]
31 78.614067 0.081635 -4.899014 0.953787 4.167932 3.035904 78.766602
32 78.614067 0.081635 -4.899014 1.130287 4.122733 5.473610 78.766602
[pelvis]
31 169.435242 0.051022 0.000000 -0.060737 -0.180134 14.260702 169.435257
32 169.435242 0.051022 0.000000 -0.060664 -0.180159 14.214182 169.435257
[null_rope03_connect]
31 -1.257226 -2.466202 137.391083 -82.097740 -75.670990 157.349365 137.418976
32 -1.257226 -2.466202 137.391083 -85.444275 -78.053505 158.730591 137.418976
[null_rope04_connect]
31 -1.259640 -2.480268 -137.844437 -82.097740 -75.670990 157.349365 137.872513
32 -1.259640 -2.480268 -137.844437 -85.444275 -78.053505 158.730591 137.872513
[Rope3_Seg01]
31 0.000010 0.000006 -0.000025 -132.469971 17.282814 -81.983505 0.000028
32 0.000010 0.000005 -0.000021 -133.067642 20.874760 -82.105057 0.000024
[Rope3_Seg02]
31 139.999924 -0.000119 0.000060 -0.374674 0.448805 5.026680 139.999924
32 139.999924 -0.000119 0.000060 -0.120634 1.118935 3.690756 139.999924
[Rope3_Seg03]
31 139.999924 -0.000119 0.000119 -1.007002 0.629342 7.673028 139.999924
32 139.999924 -0.000119 0.000119 -0.336092 1.636875 5.469411 139.999924
[Rope3_Seg04]
31 139.999924 0.000119 0.000000 0.212295 7.610361 14.058289 139.999924
32 139.999924 0.000119 0.000000 2.204627 9.457120 9.276686 139.999924
[Rope3_Seg05]
31 139.999924 -0.000238 0.000060 -16.586985 -5.454538 20.244112 139.999924
32 139.999924 -0.000238 0.000060 -11.194545 -5.124952 16.302866 139.999924
[Rope3_Seg06]
31 139.999893 -0.000119 -0.000060 -20.357960 -35.252850 2.240967 139.999893
32 139.999893 -0.000119 -0.000060 -19.179514 -29.433002 7.026524 139.999893
[Rope3_Seg07]
31 139.999771 0.000060 -0.000119 -2.722433 -13.815963 -2.070502 139.999771
32 139.999771 0.000060 -0.000119 -3.757267 -11.743250 0.865785 139.999771
[Rope3_Seg08]
31 139.999985 -0.000060 0.000000 -0.363773 -6.216693 -1.023669 139.999985
32 139.999985 -0.000060 0.000000 -1.023265 -5.841112 0.093508 139.999985
[Rope3_Seg09]
31 90.185997 -0.000179 -0.000060 -66.341698 -1.360476 -0.845951 90.185997
32 90.185997 -0.000179 -0.000060 -42.780506 -1.360279 -0.846493 90.185997
[R_rear_hand01]
31 103.366196 -6.073594 -10.757982 -160.019470 14.769054 -24.439312 104.101845
32 103.366196 -6.073594 -10.757982 -160.019470 14.769054 -24.439312 104.101845
[R_rear_hand02]
31 100.509819 12.039542 -7.992327 -35.779446 15.980558 23.927948 101.543350
32 100.509819 12.039542 -7.992327 -35.779446 15.980558 23.927948 101.543350
[R_rear_hand03]
31 101.539970 5.215704 5.435467 83.711815 -25.208061 6.550417 101.819031
32 101.539970 5.215704 5.435467 83.711815 -25.208061 6.550417 101.819031
[Rope4_Seg01]
31 0.000010 0.000038 -0.000114 40.530594 17.913336 -122.783501 0.000121
32 0.000010 0.000038 -0.000114 40.491180 21.807344 -121.027344 0.000121
[Rope4_Seg02]
31 139.999985 0.000060 0.000119 1.720649 -6.405906 4.538600 139.999985
32 139.999985 0.000060 0.000119 1.111066 -4.522814 4.517730 139.999985
[Rope4_Seg03]
31 139.999924 0.000000 -0.000238 3.974756 -10.942408 9.306452 139.999924
32 139.999924 0.000000 -0.000238 2.291452 -7.871367 8.837770 139.999924
[Rope4_Seg04]
31 139.999985 0.000000 0.000119 9.041403 -16.119209 29.037962 139.999985
32 139.999985 0.000000 0.000119 4.658625 -15.084029 30.730001 139.999985
[Rope4_Seg05]
31 139.999802 -0.000060 -0.000119 3.681355 -27.769524 -16.096336 139.999802
32 139.999802 -0.000060 -0.000119 -3.863093 -19.407045 -27.062843 139.999802
[Rope4_Seg06]
31 139.999924 0.000000 0.000060 -78.960045 -26.216410 -30.664827 139.999924
32 139.999924 0.000000 0.000060 -37.483582 -9.227794 -34.612202 139.999924
[Rope4_Seg07]
31 139.999802 0.000000 0.000000 -43.337776 7.055371 -10.795665 139.999802
32 139.999802 0.000000 0.000000 -18.418070 3.520470 -11.246411 139.999802
[Rope4_Seg08]
31 139.999924 0.000000 0.000119 -10.109231 5.338793 -1.320839 139.999924
32 139.999924 0.000000 0.000119 -7.387297 2.307211 -3.225961 139.999924
[Rope4_Seg09]
31 90.185791 0.000060 0.000060 -112.045662 2.229540 0.852985 90.185791
32 90.185791 0.000060 0.000060 -115.965370 2.229438 0.853578 90.185791
[L_rear_hand01]
31 101.696655 -8.392275 -7.654577 -36.144962 -15.023618 157.444031 102.329041
32 101.696655 -8.392275 -7.654577 -36.144974 -15.023620 157.444031 102.329041
[L_rear_hand02]
31 102.726799 -1.568258 5.773216 83.794235 23.585917 173.644012 102.900848
32 102.726799 -1.568258 5.773216 83.794235 23.585917 173.644012 102.900848
[L_rear_hand03]
31 104.552910 9.721220 -10.420293 -159.624359 -14.202496 -157.147644 105.519653
32 104.552910 9.721220 -10.420293 -159.624359 -14.202497 -157.147644 105.519653
